<svg xmlns="http://www.w3.org/2000/svg" viewBox="0 0 741 394">
  <!-- Franjas rojas y blancas -->
  <path fill="#B22234" d="M0 0h741v394H0z"/>
  <path fill="#fff" d="M0 33h741v33H0zm0 66h741v33H0zm0 66h741v33H0zm0 66h741v33H0zm0 66h741v33H0z"/>
  <!-- Cantón azul con estrellas -->
  <path fill="#3C3B6E" d="M0 0h296.4v211.8H0z"/>
  <!-- Estrellas simplificadas -->
  <g fill="#fff">
    <path d="M29.64 19.8l3.3 10.2h10.74l-8.7 6.3 3.3 10.2-8.64-6.3-8.64 6.3 3.3-10.2-8.7-6.3h10.74zm59.28 0l3.3 10.2h10.74l-8.7 6.3 3.3 10.2-8.64-6.3-8.64 6.3 3.3-10.2-8.7-6.3h10.74zm59.28 0l3.3 10.2h10.74l-8.7 6.3 3.3 10.2-8.64-6.3-8.64 6.3 3.3-10.2-8.7-6.3h10.74zm59.28 0l3.3 10.2h10.74l-8.7 6.3 3.3 10.2-8.64-6.3-8.64 6.3 3.3-10.2-8.7-6.3h10.74zm59.28 0l3.3 10.2h10.74l-8.7 6.3 3.3 10.2-8.64-6.3-8.64 6.3 3.3-10.2-8.7-6.3h10.74z"/>
    <path d="M59.28 59.4l3.3 10.2h10.74l-8.7 6.3 3.3 10.2-8.64-6.3-8.64 6.3 3.3-10.2-8.7-6.3h10.74zm59.28 0l3.3 10.2h10.74l-8.7 6.3 3.3 10.2-8.64-6.3-8.64 6.3 3.3-10.2-8.7-6.3h10.74zm59.28 0l3.3 10.2h10.74l-8.7 6.3 3.3 10.2-8.64-6.3-8.64 6.3 3.3-10.2-8.7-6.3h10.74zm59.28 0l3.3 10.2h10.74l-8.7 6.3 3.3 10.2-8.64-6.3-8.64 6.3 3.3-10.2-8.7-6.3h10.74z"/>
    <path d="M29.64 99l3.3 10.2h10.74l-8.7 6.3 3.3 10.2-8.64-6.3-8.64 6.3 3.3-10.2-8.7-6.3h10.74zm59.28 0l3.3 10.2h10.74l-8.7 6.3 3.3 10.2-8.64-6.3-8.64 6.3 3.3-10.2-8.7-6.3h10.74zm59.28 0l3.3 10.2h10.74l-8.7 6.3 3.3 10.2-8.64-6.3-8.64 6.3 3.3-10.2-8.7-6.3h10.74zm59.28 0l3.3 10.2h10.74l-8.7 6.3 3.3 10.2-8.64-6.3-8.64 6.3 3.3-10.2-8.7-6.3h10.74zm59.28 0l3.3 10.2h10.74l-8.7 6.3 3.3 10.2-8.64-6.3-8.64 6.3 3.3-10.2-8.7-6.3h10.74z"/>
    <path d="M59.28 138.6l3.3 10.2h10.74l-8.7 6.3 3.3 10.2-8.64-6.3-8.64 6.3 3.3-10.2-8.7-6.3h10.74zm59.28 0l3.3 10.2h10.74l-8.7 6.3 3.3 10.2-8.64-6.3-8.64 6.3 3.3-10.2-8.7-6.3h10.74zm59.28 0l3.3 10.2h10.74l-8.7 6.3 3.3 10.2-8.64-6.3-8.64 6.3 3.3-10.2-8.7-6.3h10.74zm59.28 0l3.3 10.2h10.74l-8.7 6.3 3.3 10.2-8.64-6.3-8.64 6.3 3.3-10.2-8.7-6.3h10.74z"/>
    <path d="M29.64 178.2l3.3 10.2h10.74l-8.7 6.3 3.3 10.2-8.64-6.3-8.64 6.3 3.3-10.2-8.7-6.3h10.74zm59.28 0l3.3 10.2h10.74l-8.7 6.3 3.3 10.2-8.64-6.3-8.64 6.3 3.3-10.2-8.7-6.3h10.74zm59.28 0l3.3 10.2h10.74l-8.7 6.3 3.3 10.2-8.64-6.3-8.64 6.3 3.3-10.2-8.7-6.3h10.74zm59.28 0l3.3 10.2h10.74l-8.7 6.3 3.3 10.2-8.64-6.3-8.64 6.3 3.3-10.2-8.7-6.3h10.74zm59.28 0l3.3 10.2h10.74l-8.7 6.3 3.3 10.2-8.64-6.3-8.64 6.3 3.3-10.2-8.7-6.3h10.74z"/>
  </g>
</svg>